<mxfile host="app.diagrams.net" modified="2023-09-24T16:03:51.383Z" agent="Mozilla/5.0 (X11; Linux x86_64; rv:107.0) Gecko/20100101 Firefox/107.0" etag="DCY3qpmV8IJ1uEUx_C6O" version="21.8.1" type="device">
  <diagram name="Page-1" id="BA1w1TKVH_9PJVkInWAO">
    <mxGraphModel dx="435" dy="241" grid="1" gridSize="10" guides="1" tooltips="1" connect="1" arrows="1" fold="1" page="1" pageScale="1" pageWidth="850" pageHeight="1100" math="0" shadow="0">
      <root>
        <mxCell id="0" />
        <mxCell id="1" parent="0" />
        <mxCell id="VYJZh8un3jOaaNcptdvZ-1" value="" style="rounded=0;whiteSpace=wrap;html=1;" vertex="1" parent="1">
          <mxGeometry x="40" y="40" width="160" height="160" as="geometry" />
        </mxCell>
        <mxCell id="VYJZh8un3jOaaNcptdvZ-2" value="" style="rounded=0;whiteSpace=wrap;html=1;fillColor=#999999;fontColor=#333333;strokeColor=#666666;" vertex="1" parent="1">
          <mxGeometry x="240" y="40" width="160" height="160" as="geometry" />
        </mxCell>
        <mxCell id="VYJZh8un3jOaaNcptdvZ-3" value="" style="rounded=0;whiteSpace=wrap;html=1;fillColor=#e1d5e7;strokeColor=#9673a6;" vertex="1" parent="1">
          <mxGeometry x="440" y="40" width="160" height="160" as="geometry" />
        </mxCell>
        <mxCell id="VYJZh8un3jOaaNcptdvZ-4" value="" style="rounded=0;whiteSpace=wrap;html=1;fillColor=#e1d5e7;strokeColor=#9673a6;" vertex="1" parent="1">
          <mxGeometry x="640" y="40" width="160" height="160" as="geometry" />
        </mxCell>
        <mxCell id="VYJZh8un3jOaaNcptdvZ-5" value="" style="rounded=0;whiteSpace=wrap;html=1;" vertex="1" parent="1">
          <mxGeometry x="40" y="360" width="160" height="40" as="geometry" />
        </mxCell>
        <mxCell id="VYJZh8un3jOaaNcptdvZ-6" value="" style="rounded=0;whiteSpace=wrap;html=1;" vertex="1" parent="1">
          <mxGeometry x="240" y="360" width="160" height="40" as="geometry" />
        </mxCell>
        <mxCell id="VYJZh8un3jOaaNcptdvZ-7" value="" style="rounded=0;whiteSpace=wrap;html=1;fillColor=#999999;fontColor=#333333;strokeColor=#666666;" vertex="1" parent="1">
          <mxGeometry x="240" y="350" width="160" height="10" as="geometry" />
        </mxCell>
        <mxCell id="VYJZh8un3jOaaNcptdvZ-8" value="" style="rounded=0;whiteSpace=wrap;html=1;" vertex="1" parent="1">
          <mxGeometry x="440" y="360" width="160" height="40" as="geometry" />
        </mxCell>
        <mxCell id="VYJZh8un3jOaaNcptdvZ-9" value="" style="rounded=0;whiteSpace=wrap;html=1;fillColor=#999999;fontColor=#333333;strokeColor=#666666;" vertex="1" parent="1">
          <mxGeometry x="440" y="350" width="160" height="10" as="geometry" />
        </mxCell>
        <mxCell id="VYJZh8un3jOaaNcptdvZ-10" value="" style="rounded=0;whiteSpace=wrap;html=1;fillColor=#e1d5e7;strokeColor=#9673a6;" vertex="1" parent="1">
          <mxGeometry x="440" y="340" width="160" height="10" as="geometry" />
        </mxCell>
        <mxCell id="VYJZh8un3jOaaNcptdvZ-11" value="" style="rounded=0;whiteSpace=wrap;html=1;fillColor=#f8cecc;strokeColor=#b85450;" vertex="1" parent="1">
          <mxGeometry x="640" y="40" width="10" height="160" as="geometry" />
        </mxCell>
        <mxCell id="VYJZh8un3jOaaNcptdvZ-12" value="" style="rounded=0;whiteSpace=wrap;html=1;fillColor=#f8cecc;strokeColor=#b85450;" vertex="1" parent="1">
          <mxGeometry x="680" y="40" width="10" height="160" as="geometry" />
        </mxCell>
        <mxCell id="VYJZh8un3jOaaNcptdvZ-13" value="" style="rounded=0;whiteSpace=wrap;html=1;fillColor=#f8cecc;strokeColor=#b85450;" vertex="1" parent="1">
          <mxGeometry x="720" y="40" width="10" height="90" as="geometry" />
        </mxCell>
        <mxCell id="VYJZh8un3jOaaNcptdvZ-14" value="" style="ellipse;whiteSpace=wrap;html=1;aspect=fixed;fillColor=#f8cecc;strokeColor=#b85450;" vertex="1" parent="1">
          <mxGeometry x="715" y="120" width="20" height="20" as="geometry" />
        </mxCell>
        <mxCell id="VYJZh8un3jOaaNcptdvZ-15" value="" style="rounded=0;whiteSpace=wrap;html=1;fillColor=#f8cecc;strokeColor=#b85450;" vertex="1" parent="1">
          <mxGeometry x="760" y="80" width="10" height="120" as="geometry" />
        </mxCell>
        <mxCell id="VYJZh8un3jOaaNcptdvZ-16" value="" style="ellipse;whiteSpace=wrap;html=1;aspect=fixed;fillColor=#f8cecc;strokeColor=#b85450;" vertex="1" parent="1">
          <mxGeometry x="755" y="70" width="20" height="20" as="geometry" />
        </mxCell>
        <mxCell id="VYJZh8un3jOaaNcptdvZ-17" value="" style="rounded=0;whiteSpace=wrap;html=1;fillColor=#e1d5e7;strokeColor=#9673a6;" vertex="1" parent="1">
          <mxGeometry x="640" y="340" width="160" height="10" as="geometry" />
        </mxCell>
        <mxCell id="VYJZh8un3jOaaNcptdvZ-18" value="" style="rounded=0;whiteSpace=wrap;html=1;fillColor=#999999;fontColor=#333333;strokeColor=#666666;" vertex="1" parent="1">
          <mxGeometry x="640" y="350" width="160" height="10" as="geometry" />
        </mxCell>
        <mxCell id="VYJZh8un3jOaaNcptdvZ-19" value="" style="rounded=0;whiteSpace=wrap;html=1;" vertex="1" parent="1">
          <mxGeometry x="640" y="360" width="160" height="40" as="geometry" />
        </mxCell>
        <mxCell id="VYJZh8un3jOaaNcptdvZ-20" value="" style="rounded=0;whiteSpace=wrap;html=1;fillColor=#f8cecc;strokeColor=#b85450;" vertex="1" parent="1">
          <mxGeometry x="640" y="270" width="160" height="10" as="geometry" />
        </mxCell>
        <mxCell id="VYJZh8un3jOaaNcptdvZ-23" value="" style="rounded=0;whiteSpace=wrap;html=1;" vertex="1" parent="1">
          <mxGeometry x="650" y="270" width="30" height="10" as="geometry" />
        </mxCell>
        <mxCell id="VYJZh8un3jOaaNcptdvZ-24" value="" style="rounded=0;whiteSpace=wrap;html=1;" vertex="1" parent="1">
          <mxGeometry x="690" y="270" width="25" height="10" as="geometry" />
        </mxCell>
        <mxCell id="VYJZh8un3jOaaNcptdvZ-25" value="" style="rounded=0;whiteSpace=wrap;html=1;" vertex="1" parent="1">
          <mxGeometry x="735" y="270" width="30" height="10" as="geometry" />
        </mxCell>
        <mxCell id="VYJZh8un3jOaaNcptdvZ-29" value="" style="rounded=0;whiteSpace=wrap;html=1;" vertex="1" parent="1">
          <mxGeometry x="775" y="270" width="25" height="10" as="geometry" />
        </mxCell>
        <mxCell id="VYJZh8un3jOaaNcptdvZ-31" value="" style="endArrow=classic;html=1;rounded=0;entryX=0.163;entryY=0.2;entryDx=0;entryDy=0;entryPerimeter=0;" edge="1" parent="1" target="VYJZh8un3jOaaNcptdvZ-17">
          <mxGeometry width="50" height="50" relative="1" as="geometry">
            <mxPoint x="666" y="220" as="sourcePoint" />
            <mxPoint x="470" y="230" as="targetPoint" />
          </mxGeometry>
        </mxCell>
        <mxCell id="VYJZh8un3jOaaNcptdvZ-32" value="" style="endArrow=classic;html=1;rounded=0;entryX=0.163;entryY=0.2;entryDx=0;entryDy=0;entryPerimeter=0;" edge="1" parent="1">
          <mxGeometry width="50" height="50" relative="1" as="geometry">
            <mxPoint x="702" y="218" as="sourcePoint" />
            <mxPoint x="702" y="340" as="targetPoint" />
          </mxGeometry>
        </mxCell>
        <mxCell id="VYJZh8un3jOaaNcptdvZ-33" value="" style="endArrow=classic;html=1;rounded=0;entryX=0.163;entryY=0.2;entryDx=0;entryDy=0;entryPerimeter=0;" edge="1" parent="1">
          <mxGeometry width="50" height="50" relative="1" as="geometry">
            <mxPoint x="749.5" y="218" as="sourcePoint" />
            <mxPoint x="749.5" y="340" as="targetPoint" />
          </mxGeometry>
        </mxCell>
        <mxCell id="VYJZh8un3jOaaNcptdvZ-34" value="" style="endArrow=classic;html=1;rounded=0;entryX=0.163;entryY=0.2;entryDx=0;entryDy=0;entryPerimeter=0;" edge="1" parent="1">
          <mxGeometry width="50" height="50" relative="1" as="geometry">
            <mxPoint x="787" y="218" as="sourcePoint" />
            <mxPoint x="787" y="340" as="targetPoint" />
          </mxGeometry>
        </mxCell>
        <mxCell id="VYJZh8un3jOaaNcptdvZ-35" value="Glass" style="text;html=1;strokeColor=none;fillColor=none;align=center;verticalAlign=middle;whiteSpace=wrap;rounded=0;" vertex="1" parent="1">
          <mxGeometry x="90" y="365" width="60" height="30" as="geometry" />
        </mxCell>
        <mxCell id="VYJZh8un3jOaaNcptdvZ-36" value="Glass" style="text;html=1;strokeColor=none;fillColor=none;align=center;verticalAlign=middle;whiteSpace=wrap;rounded=0;" vertex="1" parent="1">
          <mxGeometry x="90" y="105" width="60" height="30" as="geometry" />
        </mxCell>
        <mxCell id="VYJZh8un3jOaaNcptdvZ-37" value="Aluminium" style="text;html=1;strokeColor=none;fillColor=none;align=center;verticalAlign=middle;whiteSpace=wrap;rounded=0;" vertex="1" parent="1">
          <mxGeometry x="290" y="105" width="60" height="30" as="geometry" />
        </mxCell>
        <mxCell id="VYJZh8un3jOaaNcptdvZ-38" value="Photoresist" style="text;html=1;strokeColor=none;fillColor=none;align=center;verticalAlign=middle;whiteSpace=wrap;rounded=0;" vertex="1" parent="1">
          <mxGeometry x="490" y="105" width="60" height="30" as="geometry" />
        </mxCell>
        <mxCell id="VYJZh8un3jOaaNcptdvZ-39" value="Exposed&lt;br&gt;Photoresist" style="text;html=1;strokeColor=none;fillColor=none;align=center;verticalAlign=middle;whiteSpace=wrap;rounded=0;" vertex="1" parent="1">
          <mxGeometry x="840" y="125" width="60" height="30" as="geometry" />
        </mxCell>
        <mxCell id="VYJZh8un3jOaaNcptdvZ-40" value="Mask" style="text;html=1;strokeColor=none;fillColor=none;align=center;verticalAlign=middle;whiteSpace=wrap;rounded=0;" vertex="1" parent="1">
          <mxGeometry x="830" y="80" width="60" height="30" as="geometry" />
        </mxCell>
        <mxCell id="VYJZh8un3jOaaNcptdvZ-41" value="EUV" style="text;html=1;strokeColor=none;fillColor=none;align=center;verticalAlign=middle;whiteSpace=wrap;rounded=0;" vertex="1" parent="1">
          <mxGeometry x="695" y="220" width="60" height="30" as="geometry" />
        </mxCell>
        <mxCell id="VYJZh8un3jOaaNcptdvZ-42" value="" style="endArrow=classic;html=1;rounded=0;exitX=0;exitY=0.25;exitDx=0;exitDy=0;" edge="1" parent="1" source="VYJZh8un3jOaaNcptdvZ-39">
          <mxGeometry width="50" height="50" relative="1" as="geometry">
            <mxPoint x="810" y="130" as="sourcePoint" />
            <mxPoint x="790" y="133" as="targetPoint" />
          </mxGeometry>
        </mxCell>
        <mxCell id="VYJZh8un3jOaaNcptdvZ-43" value="" style="endArrow=classic;html=1;rounded=0;entryX=1;entryY=0.125;entryDx=0;entryDy=0;entryPerimeter=0;" edge="1" parent="1" source="VYJZh8un3jOaaNcptdvZ-40" target="VYJZh8un3jOaaNcptdvZ-15">
          <mxGeometry width="50" height="50" relative="1" as="geometry">
            <mxPoint x="620" y="250" as="sourcePoint" />
            <mxPoint x="670" y="200" as="targetPoint" />
          </mxGeometry>
        </mxCell>
        <mxCell id="VYJZh8un3jOaaNcptdvZ-44" value="" style="rounded=0;whiteSpace=wrap;html=1;fillColor=#999999;strokeColor=#666666;fontColor=#333333;" vertex="1" parent="1">
          <mxGeometry x="40" y="460" width="160" height="160" as="geometry" />
        </mxCell>
        <mxCell id="VYJZh8un3jOaaNcptdvZ-45" value="" style="rounded=0;whiteSpace=wrap;html=1;fillColor=#e1d5e7;strokeColor=#9673a6;" vertex="1" parent="1">
          <mxGeometry x="40" y="460" width="10" height="160" as="geometry" />
        </mxCell>
        <mxCell id="VYJZh8un3jOaaNcptdvZ-46" value="" style="rounded=0;whiteSpace=wrap;html=1;fillColor=#e1d5e7;strokeColor=#9673a6;" vertex="1" parent="1">
          <mxGeometry x="80" y="460" width="10" height="160" as="geometry" />
        </mxCell>
        <mxCell id="VYJZh8un3jOaaNcptdvZ-47" value="" style="rounded=0;whiteSpace=wrap;html=1;fillColor=#e1d5e7;strokeColor=#9673a6;" vertex="1" parent="1">
          <mxGeometry x="120" y="460" width="10" height="90" as="geometry" />
        </mxCell>
        <mxCell id="VYJZh8un3jOaaNcptdvZ-48" value="" style="ellipse;whiteSpace=wrap;html=1;aspect=fixed;fillColor=#e1d5e7;strokeColor=#9673a6;" vertex="1" parent="1">
          <mxGeometry x="115" y="540" width="20" height="20" as="geometry" />
        </mxCell>
        <mxCell id="VYJZh8un3jOaaNcptdvZ-49" value="" style="rounded=0;whiteSpace=wrap;html=1;fillColor=#e1d5e7;strokeColor=#9673a6;" vertex="1" parent="1">
          <mxGeometry x="160" y="500" width="10" height="120" as="geometry" />
        </mxCell>
        <mxCell id="VYJZh8un3jOaaNcptdvZ-50" value="" style="ellipse;whiteSpace=wrap;html=1;aspect=fixed;fillColor=#e1d5e7;strokeColor=#9673a6;" vertex="1" parent="1">
          <mxGeometry x="155" y="490" width="20" height="20" as="geometry" />
        </mxCell>
        <mxCell id="VYJZh8un3jOaaNcptdvZ-52" value="" style="rounded=0;whiteSpace=wrap;html=1;fillColor=#999999;fontColor=#333333;strokeColor=#666666;" vertex="1" parent="1">
          <mxGeometry x="40" y="700" width="160" height="10" as="geometry" />
        </mxCell>
        <mxCell id="VYJZh8un3jOaaNcptdvZ-53" value="" style="rounded=0;whiteSpace=wrap;html=1;" vertex="1" parent="1">
          <mxGeometry x="40" y="710" width="160" height="40" as="geometry" />
        </mxCell>
        <mxCell id="VYJZh8un3jOaaNcptdvZ-54" value="" style="rounded=0;whiteSpace=wrap;html=1;fillColor=#e1d5e7;strokeColor=#9673a6;" vertex="1" parent="1">
          <mxGeometry x="40" y="690" width="160" height="10" as="geometry" />
        </mxCell>
        <mxCell id="VYJZh8un3jOaaNcptdvZ-55" value="" style="rounded=0;whiteSpace=wrap;html=1;strokeColor=#FFFFFF;" vertex="1" parent="1">
          <mxGeometry x="50" y="690" width="30" height="10" as="geometry" />
        </mxCell>
        <mxCell id="VYJZh8un3jOaaNcptdvZ-56" value="" style="rounded=0;whiteSpace=wrap;html=1;strokeColor=#FFFFFF;" vertex="1" parent="1">
          <mxGeometry x="90" y="690" width="25" height="10" as="geometry" />
        </mxCell>
        <mxCell id="VYJZh8un3jOaaNcptdvZ-57" value="" style="rounded=0;whiteSpace=wrap;html=1;fillColor=default;strokeColor=#FFFFFF;" vertex="1" parent="1">
          <mxGeometry x="135" y="690" width="30" height="10" as="geometry" />
        </mxCell>
        <mxCell id="VYJZh8un3jOaaNcptdvZ-58" value="" style="rounded=0;whiteSpace=wrap;html=1;strokeColor=#FFFFFF;" vertex="1" parent="1">
          <mxGeometry x="175" y="690" width="25" height="10" as="geometry" />
        </mxCell>
        <mxCell id="VYJZh8un3jOaaNcptdvZ-63" value="Exposed&lt;br&gt;Aluminium" style="text;html=1;strokeColor=none;fillColor=none;align=center;verticalAlign=middle;whiteSpace=wrap;rounded=0;" vertex="1" parent="1">
          <mxGeometry x="95" y="580" width="60" height="30" as="geometry" />
        </mxCell>
        <mxCell id="VYJZh8un3jOaaNcptdvZ-64" value="Photoresist" style="text;html=1;strokeColor=none;fillColor=none;align=center;verticalAlign=middle;whiteSpace=wrap;rounded=0;" vertex="1" parent="1">
          <mxGeometry x="140" y="420" width="60" height="30" as="geometry" />
        </mxCell>
        <mxCell id="VYJZh8un3jOaaNcptdvZ-67" value="" style="endArrow=classic;html=1;rounded=0;" edge="1" source="VYJZh8un3jOaaNcptdvZ-64" parent="1">
          <mxGeometry width="50" height="50" relative="1" as="geometry">
            <mxPoint x="210" y="515" as="sourcePoint" />
            <mxPoint x="170" y="500" as="targetPoint" />
          </mxGeometry>
        </mxCell>
        <mxCell id="VYJZh8un3jOaaNcptdvZ-85" value="" style="rounded=0;whiteSpace=wrap;html=1;" vertex="1" parent="1">
          <mxGeometry x="240" y="460" width="160" height="160" as="geometry" />
        </mxCell>
        <mxCell id="VYJZh8un3jOaaNcptdvZ-86" value="" style="rounded=0;whiteSpace=wrap;html=1;fillColor=#999999;strokeColor=none;" vertex="1" parent="1">
          <mxGeometry x="240" y="460" width="10" height="160" as="geometry" />
        </mxCell>
        <mxCell id="VYJZh8un3jOaaNcptdvZ-87" value="" style="rounded=0;whiteSpace=wrap;html=1;fillColor=#999999;strokeColor=none;" vertex="1" parent="1">
          <mxGeometry x="280" y="460" width="10" height="160" as="geometry" />
        </mxCell>
        <mxCell id="VYJZh8un3jOaaNcptdvZ-88" value="" style="rounded=0;whiteSpace=wrap;html=1;fillColor=#999999;strokeColor=none;" vertex="1" parent="1">
          <mxGeometry x="320" y="460" width="10" height="90" as="geometry" />
        </mxCell>
        <mxCell id="VYJZh8un3jOaaNcptdvZ-89" value="" style="ellipse;whiteSpace=wrap;html=1;aspect=fixed;fillColor=#999999;strokeColor=none;" vertex="1" parent="1">
          <mxGeometry x="315" y="540" width="20" height="20" as="geometry" />
        </mxCell>
        <mxCell id="VYJZh8un3jOaaNcptdvZ-90" value="" style="rounded=0;whiteSpace=wrap;html=1;fillColor=#999999;strokeColor=#999999;" vertex="1" parent="1">
          <mxGeometry x="360" y="500" width="10" height="120" as="geometry" />
        </mxCell>
        <mxCell id="VYJZh8un3jOaaNcptdvZ-91" value="" style="ellipse;whiteSpace=wrap;html=1;aspect=fixed;fillColor=#999999;strokeColor=none;" vertex="1" parent="1">
          <mxGeometry x="355" y="490" width="20" height="20" as="geometry" />
        </mxCell>
        <mxCell id="VYJZh8un3jOaaNcptdvZ-94" value="" style="rounded=0;whiteSpace=wrap;html=1;fillColor=#999999;strokeColor=#000000;fontColor=#333333;" vertex="1" parent="1">
          <mxGeometry x="240" y="700" width="160" height="10" as="geometry" />
        </mxCell>
        <mxCell id="VYJZh8un3jOaaNcptdvZ-95" value="" style="rounded=0;whiteSpace=wrap;html=1;strokeColor=#FFFFFF;" vertex="1" parent="1">
          <mxGeometry x="250" y="700" width="30" height="10" as="geometry" />
        </mxCell>
        <mxCell id="VYJZh8un3jOaaNcptdvZ-96" value="" style="rounded=0;whiteSpace=wrap;html=1;strokeColor=#FFFFFF;fillColor=#f5f5f5;fontColor=#333333;" vertex="1" parent="1">
          <mxGeometry x="290" y="700" width="25" height="10" as="geometry" />
        </mxCell>
        <mxCell id="VYJZh8un3jOaaNcptdvZ-97" value="" style="rounded=0;whiteSpace=wrap;html=1;strokeColor=#FFFFFF;" vertex="1" parent="1">
          <mxGeometry x="335" y="700" width="30" height="10" as="geometry" />
        </mxCell>
        <mxCell id="VYJZh8un3jOaaNcptdvZ-98" value="" style="rounded=0;whiteSpace=wrap;html=1;strokeColor=#FFFFFF;" vertex="1" parent="1">
          <mxGeometry x="375" y="700" width="25" height="10" as="geometry" />
        </mxCell>
        <mxCell id="VYJZh8un3jOaaNcptdvZ-99" value="Glass" style="text;html=1;strokeColor=none;fillColor=none;align=center;verticalAlign=middle;whiteSpace=wrap;rounded=0;" vertex="1" parent="1">
          <mxGeometry x="295" y="580" width="60" height="30" as="geometry" />
        </mxCell>
        <mxCell id="VYJZh8un3jOaaNcptdvZ-100" value="Aluminium" style="text;html=1;strokeColor=none;fillColor=none;align=center;verticalAlign=middle;whiteSpace=wrap;rounded=0;" vertex="1" parent="1">
          <mxGeometry x="340" y="420" width="60" height="30" as="geometry" />
        </mxCell>
        <mxCell id="VYJZh8un3jOaaNcptdvZ-101" value="" style="endArrow=classic;html=1;rounded=0;" edge="1" source="VYJZh8un3jOaaNcptdvZ-100" parent="1">
          <mxGeometry width="50" height="50" relative="1" as="geometry">
            <mxPoint x="410" y="515" as="sourcePoint" />
            <mxPoint x="370" y="500" as="targetPoint" />
          </mxGeometry>
        </mxCell>
        <mxCell id="VYJZh8un3jOaaNcptdvZ-109" value="" style="rounded=0;whiteSpace=wrap;html=1;" vertex="1" parent="1">
          <mxGeometry x="440" y="710" width="160" height="40" as="geometry" />
        </mxCell>
        <mxCell id="VYJZh8un3jOaaNcptdvZ-110" value="" style="rounded=0;whiteSpace=wrap;html=1;fillColor=#999999;strokeColor=#000000;fontColor=#333333;" vertex="1" parent="1">
          <mxGeometry x="440" y="700" width="160" height="10" as="geometry" />
        </mxCell>
        <mxCell id="VYJZh8un3jOaaNcptdvZ-111" value="" style="rounded=0;whiteSpace=wrap;html=1;fillColor=#fff2cc;strokeColor=#d6b656;" vertex="1" parent="1">
          <mxGeometry x="450" y="700" width="30" height="10" as="geometry" />
        </mxCell>
        <mxCell id="VYJZh8un3jOaaNcptdvZ-112" value="" style="rounded=0;whiteSpace=wrap;html=1;strokeColor=#d6b656;fillColor=#fff2cc;" vertex="1" parent="1">
          <mxGeometry x="490" y="700" width="25" height="10" as="geometry" />
        </mxCell>
        <mxCell id="VYJZh8un3jOaaNcptdvZ-113" value="" style="rounded=0;whiteSpace=wrap;html=1;fillColor=#fff2cc;strokeColor=#d6b656;" vertex="1" parent="1">
          <mxGeometry x="535" y="700" width="30" height="10" as="geometry" />
        </mxCell>
        <mxCell id="VYJZh8un3jOaaNcptdvZ-114" value="" style="rounded=0;whiteSpace=wrap;html=1;fillColor=#fff2cc;strokeColor=#d6b656;" vertex="1" parent="1">
          <mxGeometry x="575" y="700" width="25" height="10" as="geometry" />
        </mxCell>
        <mxCell id="VYJZh8un3jOaaNcptdvZ-117" value="" style="rounded=0;whiteSpace=wrap;html=1;fillColor=#fff2cc;strokeColor=#d6b656;" vertex="1" parent="1">
          <mxGeometry x="440" y="460" width="160" height="160" as="geometry" />
        </mxCell>
        <mxCell id="VYJZh8un3jOaaNcptdvZ-118" value="Gold" style="text;html=1;strokeColor=none;fillColor=none;align=center;verticalAlign=middle;whiteSpace=wrap;rounded=0;" vertex="1" parent="1">
          <mxGeometry x="490" y="525" width="60" height="30" as="geometry" />
        </mxCell>
        <mxCell id="VYJZh8un3jOaaNcptdvZ-119" value="" style="rounded=0;whiteSpace=wrap;html=1;fillColor=#fff2cc;strokeColor=#d6b656;" vertex="1" parent="1">
          <mxGeometry x="440" y="690" width="160" height="10" as="geometry" />
        </mxCell>
        <mxCell id="VYJZh8un3jOaaNcptdvZ-120" value="" style="rounded=0;whiteSpace=wrap;html=1;fillColor=#e1d5e7;strokeColor=#9673a6;" vertex="1" parent="1">
          <mxGeometry x="40" y="840" width="160" height="160" as="geometry" />
        </mxCell>
        <mxCell id="VYJZh8un3jOaaNcptdvZ-124" value="" style="ellipse;whiteSpace=wrap;html=1;aspect=fixed;fillColor=#f8cecc;strokeColor=#b85450;" vertex="1" parent="1">
          <mxGeometry x="115" y="920" width="20" height="20" as="geometry" />
        </mxCell>
        <mxCell id="VYJZh8un3jOaaNcptdvZ-126" value="" style="ellipse;whiteSpace=wrap;html=1;aspect=fixed;fillColor=#f8cecc;strokeColor=#b85450;" vertex="1" parent="1">
          <mxGeometry x="155" y="870" width="20" height="20" as="geometry" />
        </mxCell>
        <mxCell id="VYJZh8un3jOaaNcptdvZ-128" value="" style="rounded=0;whiteSpace=wrap;html=1;fillColor=#999999;fontColor=#333333;strokeColor=#666666;" vertex="1" parent="1">
          <mxGeometry x="40" y="1150" width="160" height="10" as="geometry" />
        </mxCell>
        <mxCell id="VYJZh8un3jOaaNcptdvZ-129" value="" style="rounded=0;whiteSpace=wrap;html=1;" vertex="1" parent="1">
          <mxGeometry x="40" y="1160" width="160" height="40" as="geometry" />
        </mxCell>
        <mxCell id="VYJZh8un3jOaaNcptdvZ-130" value="" style="rounded=0;whiteSpace=wrap;html=1;fillColor=#f8cecc;strokeColor=#b85450;" vertex="1" parent="1">
          <mxGeometry x="40" y="1070" width="160" height="10" as="geometry" />
        </mxCell>
        <mxCell id="VYJZh8un3jOaaNcptdvZ-131" value="" style="rounded=0;whiteSpace=wrap;html=1;" vertex="1" parent="1">
          <mxGeometry x="30" y="1070" width="70" height="10" as="geometry" />
        </mxCell>
        <mxCell id="VYJZh8un3jOaaNcptdvZ-134" value="" style="rounded=0;whiteSpace=wrap;html=1;" vertex="1" parent="1">
          <mxGeometry x="180" y="1070" width="20" height="10" as="geometry" />
        </mxCell>
        <mxCell id="VYJZh8un3jOaaNcptdvZ-135" value="" style="endArrow=classic;html=1;rounded=0;entryX=0.163;entryY=0;entryDx=0;entryDy=0;entryPerimeter=0;" edge="1" target="VYJZh8un3jOaaNcptdvZ-199" parent="1">
          <mxGeometry width="50" height="50" relative="1" as="geometry">
            <mxPoint x="66" y="1020" as="sourcePoint" />
            <mxPoint x="66" y="1122" as="targetPoint" />
          </mxGeometry>
        </mxCell>
        <mxCell id="VYJZh8un3jOaaNcptdvZ-136" value="" style="endArrow=classic;html=1;rounded=0;entryX=0.389;entryY=0.165;entryDx=0;entryDy=0;entryPerimeter=0;" edge="1" parent="1" target="VYJZh8un3jOaaNcptdvZ-199">
          <mxGeometry width="50" height="50" relative="1" as="geometry">
            <mxPoint x="102" y="1018" as="sourcePoint" />
            <mxPoint x="102" y="1140" as="targetPoint" />
          </mxGeometry>
        </mxCell>
        <mxCell id="VYJZh8un3jOaaNcptdvZ-137" value="" style="endArrow=classic;html=1;rounded=0;entryX=0.668;entryY=0.047;entryDx=0;entryDy=0;entryPerimeter=0;" edge="1" parent="1" source="VYJZh8un3jOaaNcptdvZ-133" target="VYJZh8un3jOaaNcptdvZ-199">
          <mxGeometry width="50" height="50" relative="1" as="geometry">
            <mxPoint x="149.5" y="1018" as="sourcePoint" />
            <mxPoint x="145" y="1120" as="targetPoint" />
          </mxGeometry>
        </mxCell>
        <mxCell id="VYJZh8un3jOaaNcptdvZ-138" value="" style="endArrow=classic;html=1;rounded=0;entryX=0.925;entryY=-0.188;entryDx=0;entryDy=0;entryPerimeter=0;" edge="1" parent="1" target="VYJZh8un3jOaaNcptdvZ-199">
          <mxGeometry width="50" height="50" relative="1" as="geometry">
            <mxPoint x="187" y="1018" as="sourcePoint" />
            <mxPoint x="187" y="1140" as="targetPoint" />
          </mxGeometry>
        </mxCell>
        <mxCell id="VYJZh8un3jOaaNcptdvZ-139" value="EUV" style="text;html=1;strokeColor=none;fillColor=none;align=center;verticalAlign=middle;whiteSpace=wrap;rounded=0;" vertex="1" parent="1">
          <mxGeometry x="95" y="1020" width="60" height="30" as="geometry" />
        </mxCell>
        <mxCell id="VYJZh8un3jOaaNcptdvZ-143" value="" style="rounded=1;whiteSpace=wrap;html=1;fillColor=#f8cecc;strokeColor=#b85450;" vertex="1" parent="1">
          <mxGeometry x="110" y="915" width="30" height="30" as="geometry" />
        </mxCell>
        <mxCell id="VYJZh8un3jOaaNcptdvZ-144" value="" style="rounded=1;whiteSpace=wrap;html=1;fillColor=#f8cecc;strokeColor=#b85450;" vertex="1" parent="1">
          <mxGeometry x="150" y="865" width="30" height="30" as="geometry" />
        </mxCell>
        <mxCell id="VYJZh8un3jOaaNcptdvZ-151" value="" style="endArrow=classic;html=1;rounded=0;" edge="1" parent="1">
          <mxGeometry width="50" height="50" relative="1" as="geometry">
            <mxPoint x="149.5" y="1018" as="sourcePoint" />
            <mxPoint x="145" y="1075" as="targetPoint" />
          </mxGeometry>
        </mxCell>
        <mxCell id="VYJZh8un3jOaaNcptdvZ-133" value="" style="rounded=0;whiteSpace=wrap;html=1;" vertex="1" parent="1">
          <mxGeometry x="140" y="1070" width="10" height="10" as="geometry" />
        </mxCell>
        <mxCell id="VYJZh8un3jOaaNcptdvZ-153" value="Mask" style="text;html=1;strokeColor=none;fillColor=none;align=center;verticalAlign=middle;whiteSpace=wrap;rounded=0;" vertex="1" parent="1">
          <mxGeometry x="135" y="800" width="60" height="30" as="geometry" />
        </mxCell>
        <mxCell id="VYJZh8un3jOaaNcptdvZ-154" value="Exposed&lt;br&gt;Photoresist" style="text;html=1;strokeColor=none;fillColor=none;align=center;verticalAlign=middle;whiteSpace=wrap;rounded=0;" vertex="1" parent="1">
          <mxGeometry x="60" y="800" width="60" height="30" as="geometry" />
        </mxCell>
        <mxCell id="VYJZh8un3jOaaNcptdvZ-155" value="" style="endArrow=classic;html=1;rounded=0;" edge="1" source="VYJZh8un3jOaaNcptdvZ-153" parent="1">
          <mxGeometry width="50" height="50" relative="1" as="geometry">
            <mxPoint x="25" y="1040" as="sourcePoint" />
            <mxPoint x="165" y="885" as="targetPoint" />
          </mxGeometry>
        </mxCell>
        <mxCell id="VYJZh8un3jOaaNcptdvZ-156" value="" style="endArrow=classic;html=1;rounded=0;" edge="1" source="VYJZh8un3jOaaNcptdvZ-154" parent="1">
          <mxGeometry width="50" height="50" relative="1" as="geometry">
            <mxPoint x="85" y="810" as="sourcePoint" />
            <mxPoint x="90" y="850.5" as="targetPoint" />
          </mxGeometry>
        </mxCell>
        <mxCell id="VYJZh8un3jOaaNcptdvZ-157" value="" style="rounded=0;whiteSpace=wrap;html=1;fillColor=#fff2cc;strokeColor=#d6b656;" vertex="1" parent="1">
          <mxGeometry x="248.75" y="840" width="160" height="160" as="geometry" />
        </mxCell>
        <mxCell id="VYJZh8un3jOaaNcptdvZ-158" value="" style="ellipse;whiteSpace=wrap;html=1;aspect=fixed;fillColor=#f8cecc;strokeColor=#b85450;" vertex="1" parent="1">
          <mxGeometry x="318.75" y="920" width="20" height="20" as="geometry" />
        </mxCell>
        <mxCell id="VYJZh8un3jOaaNcptdvZ-159" value="" style="ellipse;whiteSpace=wrap;html=1;aspect=fixed;fillColor=#f8cecc;strokeColor=#b85450;" vertex="1" parent="1">
          <mxGeometry x="358.75" y="870" width="20" height="20" as="geometry" />
        </mxCell>
        <mxCell id="VYJZh8un3jOaaNcptdvZ-175" value="Photoresist" style="text;html=1;strokeColor=none;fillColor=none;align=center;verticalAlign=middle;whiteSpace=wrap;rounded=0;" vertex="1" parent="1">
          <mxGeometry x="333.75" y="800" width="60" height="30" as="geometry" />
        </mxCell>
        <mxCell id="VYJZh8un3jOaaNcptdvZ-177" value="" style="endArrow=classic;html=1;rounded=0;exitX=0.423;exitY=1.007;exitDx=0;exitDy=0;exitPerimeter=0;" edge="1" parent="1" source="VYJZh8un3jOaaNcptdvZ-214">
          <mxGeometry width="50" height="50" relative="1" as="geometry">
            <mxPoint x="313.75" y="864.2" as="sourcePoint" />
            <mxPoint x="266.25" y="870" as="targetPoint" />
          </mxGeometry>
        </mxCell>
        <mxCell id="VYJZh8un3jOaaNcptdvZ-176" value="" style="endArrow=classic;html=1;rounded=0;exitX=0.588;exitY=0.967;exitDx=0;exitDy=0;exitPerimeter=0;" edge="1" source="VYJZh8un3jOaaNcptdvZ-175" parent="1" target="VYJZh8un3jOaaNcptdvZ-172">
          <mxGeometry width="50" height="50" relative="1" as="geometry">
            <mxPoint x="228.75" y="1040" as="sourcePoint" />
            <mxPoint x="378.75" y="885" as="targetPoint" />
          </mxGeometry>
        </mxCell>
        <mxCell id="VYJZh8un3jOaaNcptdvZ-178" value="" style="rounded=0;whiteSpace=wrap;html=1;fillColor=#999999;strokeColor=none;" vertex="1" parent="1">
          <mxGeometry x="283.75" y="840" width="10" height="160" as="geometry" />
        </mxCell>
        <mxCell id="VYJZh8un3jOaaNcptdvZ-179" value="" style="rounded=0;whiteSpace=wrap;html=1;fillColor=#999999;strokeColor=none;" vertex="1" parent="1">
          <mxGeometry x="243.75" y="840" width="10" height="160" as="geometry" />
        </mxCell>
        <mxCell id="VYJZh8un3jOaaNcptdvZ-180" value="" style="rounded=0;whiteSpace=wrap;html=1;fillColor=#999999;strokeColor=none;" vertex="1" parent="1">
          <mxGeometry x="323.75" y="840" width="10" height="90" as="geometry" />
        </mxCell>
        <mxCell id="VYJZh8un3jOaaNcptdvZ-181" value="" style="rounded=0;whiteSpace=wrap;html=1;fillColor=#999999;strokeColor=none;" vertex="1" parent="1">
          <mxGeometry x="363.75" y="880" width="10" height="120" as="geometry" />
        </mxCell>
        <mxCell id="VYJZh8un3jOaaNcptdvZ-171" value="" style="rounded=1;whiteSpace=wrap;html=1;fillColor=#e1d5e7;strokeColor=#9673a6;" vertex="1" parent="1">
          <mxGeometry x="313.75" y="915" width="30" height="30" as="geometry" />
        </mxCell>
        <mxCell id="VYJZh8un3jOaaNcptdvZ-172" value="" style="rounded=1;whiteSpace=wrap;html=1;fillColor=#e1d5e7;strokeColor=#9673a6;" vertex="1" parent="1">
          <mxGeometry x="353.75" y="865" width="30" height="30" as="geometry" />
        </mxCell>
        <mxCell id="VYJZh8un3jOaaNcptdvZ-182" value="" style="rounded=0;whiteSpace=wrap;html=1;" vertex="1" parent="1">
          <mxGeometry x="640" y="710" width="160" height="40" as="geometry" />
        </mxCell>
        <mxCell id="VYJZh8un3jOaaNcptdvZ-183" value="" style="rounded=0;whiteSpace=wrap;html=1;fillColor=#999999;strokeColor=#000000;fontColor=#333333;" vertex="1" parent="1">
          <mxGeometry x="640" y="700" width="160" height="10" as="geometry" />
        </mxCell>
        <mxCell id="VYJZh8un3jOaaNcptdvZ-184" value="" style="rounded=0;whiteSpace=wrap;html=1;fillColor=#fff2cc;strokeColor=#d6b656;" vertex="1" parent="1">
          <mxGeometry x="650" y="700" width="30" height="10" as="geometry" />
        </mxCell>
        <mxCell id="VYJZh8un3jOaaNcptdvZ-185" value="" style="rounded=0;whiteSpace=wrap;html=1;strokeColor=#d6b656;fillColor=#fff2cc;" vertex="1" parent="1">
          <mxGeometry x="690" y="700" width="25" height="10" as="geometry" />
        </mxCell>
        <mxCell id="VYJZh8un3jOaaNcptdvZ-186" value="" style="rounded=0;whiteSpace=wrap;html=1;fillColor=#fff2cc;strokeColor=#d6b656;" vertex="1" parent="1">
          <mxGeometry x="735" y="700" width="30" height="10" as="geometry" />
        </mxCell>
        <mxCell id="VYJZh8un3jOaaNcptdvZ-187" value="" style="rounded=0;whiteSpace=wrap;html=1;fillColor=#fff2cc;strokeColor=#d6b656;" vertex="1" parent="1">
          <mxGeometry x="775" y="700" width="25" height="10" as="geometry" />
        </mxCell>
        <mxCell id="VYJZh8un3jOaaNcptdvZ-188" value="" style="rounded=0;whiteSpace=wrap;html=1;fillColor=#e1d5e7;strokeColor=#9673a6;" vertex="1" parent="1">
          <mxGeometry x="640" y="460" width="160" height="160" as="geometry" />
        </mxCell>
        <mxCell id="VYJZh8un3jOaaNcptdvZ-189" value="Photoresist" style="text;html=1;strokeColor=none;fillColor=none;align=center;verticalAlign=middle;whiteSpace=wrap;rounded=0;" vertex="1" parent="1">
          <mxGeometry x="690" y="525" width="60" height="30" as="geometry" />
        </mxCell>
        <mxCell id="VYJZh8un3jOaaNcptdvZ-190" value="" style="rounded=0;whiteSpace=wrap;html=1;fillColor=#fff2cc;strokeColor=#d6b656;" vertex="1" parent="1">
          <mxGeometry x="640" y="690" width="160" height="10" as="geometry" />
        </mxCell>
        <mxCell id="VYJZh8un3jOaaNcptdvZ-191" value="" style="rounded=0;whiteSpace=wrap;html=1;fillColor=#e1d5e7;strokeColor=#9673a6;" vertex="1" parent="1">
          <mxGeometry x="640" y="680" width="160" height="10" as="geometry" />
        </mxCell>
        <mxCell id="VYJZh8un3jOaaNcptdvZ-192" value="" style="rounded=0;whiteSpace=wrap;html=1;" vertex="1" parent="1">
          <mxGeometry x="40" y="1160" width="160" height="40" as="geometry" />
        </mxCell>
        <mxCell id="VYJZh8un3jOaaNcptdvZ-193" value="" style="rounded=0;whiteSpace=wrap;html=1;fillColor=#999999;strokeColor=#000000;fontColor=#333333;" vertex="1" parent="1">
          <mxGeometry x="40" y="1150" width="160" height="10" as="geometry" />
        </mxCell>
        <mxCell id="VYJZh8un3jOaaNcptdvZ-194" value="" style="rounded=0;whiteSpace=wrap;html=1;fillColor=#fff2cc;strokeColor=#d6b656;" vertex="1" parent="1">
          <mxGeometry x="50" y="1150" width="30" height="10" as="geometry" />
        </mxCell>
        <mxCell id="VYJZh8un3jOaaNcptdvZ-195" value="" style="rounded=0;whiteSpace=wrap;html=1;strokeColor=#d6b656;fillColor=#fff2cc;" vertex="1" parent="1">
          <mxGeometry x="90" y="1150" width="25" height="10" as="geometry" />
        </mxCell>
        <mxCell id="VYJZh8un3jOaaNcptdvZ-196" value="" style="rounded=0;whiteSpace=wrap;html=1;fillColor=#fff2cc;strokeColor=#d6b656;" vertex="1" parent="1">
          <mxGeometry x="135" y="1150" width="30" height="10" as="geometry" />
        </mxCell>
        <mxCell id="VYJZh8un3jOaaNcptdvZ-197" value="" style="rounded=0;whiteSpace=wrap;html=1;fillColor=#fff2cc;strokeColor=#d6b656;" vertex="1" parent="1">
          <mxGeometry x="175" y="1150" width="25" height="10" as="geometry" />
        </mxCell>
        <mxCell id="VYJZh8un3jOaaNcptdvZ-198" value="" style="rounded=0;whiteSpace=wrap;html=1;fillColor=#fff2cc;strokeColor=#d6b656;" vertex="1" parent="1">
          <mxGeometry x="40" y="1140" width="160" height="10" as="geometry" />
        </mxCell>
        <mxCell id="VYJZh8un3jOaaNcptdvZ-199" value="" style="rounded=0;whiteSpace=wrap;html=1;fillColor=#e1d5e7;strokeColor=#9673a6;" vertex="1" parent="1">
          <mxGeometry x="40" y="1130" width="160" height="10" as="geometry" />
        </mxCell>
        <mxCell id="VYJZh8un3jOaaNcptdvZ-200" value="" style="rounded=0;whiteSpace=wrap;html=1;fillColor=#999999;fontColor=#333333;strokeColor=#666666;" vertex="1" parent="1">
          <mxGeometry x="245" y="1150" width="160" height="10" as="geometry" />
        </mxCell>
        <mxCell id="VYJZh8un3jOaaNcptdvZ-201" value="" style="rounded=0;whiteSpace=wrap;html=1;" vertex="1" parent="1">
          <mxGeometry x="245" y="1160" width="160" height="40" as="geometry" />
        </mxCell>
        <mxCell id="VYJZh8un3jOaaNcptdvZ-202" value="" style="rounded=0;whiteSpace=wrap;html=1;" vertex="1" parent="1">
          <mxGeometry x="245" y="1160" width="160" height="40" as="geometry" />
        </mxCell>
        <mxCell id="VYJZh8un3jOaaNcptdvZ-203" value="" style="rounded=0;whiteSpace=wrap;html=1;fillColor=#999999;strokeColor=#000000;fontColor=#333333;" vertex="1" parent="1">
          <mxGeometry x="245" y="1150" width="160" height="10" as="geometry" />
        </mxCell>
        <mxCell id="VYJZh8un3jOaaNcptdvZ-204" value="" style="rounded=0;whiteSpace=wrap;html=1;fillColor=#fff2cc;strokeColor=#d6b656;" vertex="1" parent="1">
          <mxGeometry x="255" y="1150" width="30" height="10" as="geometry" />
        </mxCell>
        <mxCell id="VYJZh8un3jOaaNcptdvZ-205" value="" style="rounded=0;whiteSpace=wrap;html=1;strokeColor=#d6b656;fillColor=#fff2cc;" vertex="1" parent="1">
          <mxGeometry x="295" y="1150" width="25" height="10" as="geometry" />
        </mxCell>
        <mxCell id="VYJZh8un3jOaaNcptdvZ-206" value="" style="rounded=0;whiteSpace=wrap;html=1;fillColor=#fff2cc;strokeColor=#d6b656;" vertex="1" parent="1">
          <mxGeometry x="340" y="1150" width="30" height="10" as="geometry" />
        </mxCell>
        <mxCell id="VYJZh8un3jOaaNcptdvZ-207" value="" style="rounded=0;whiteSpace=wrap;html=1;fillColor=#fff2cc;strokeColor=#d6b656;" vertex="1" parent="1">
          <mxGeometry x="380" y="1150" width="25" height="10" as="geometry" />
        </mxCell>
        <mxCell id="VYJZh8un3jOaaNcptdvZ-209" value="" style="rounded=0;whiteSpace=wrap;html=1;fillColor=#e1d5e7;strokeColor=#9673a6;" vertex="1" parent="1">
          <mxGeometry x="245" y="1130" width="160" height="10" as="geometry" />
        </mxCell>
        <mxCell id="VYJZh8un3jOaaNcptdvZ-210" value="" style="rounded=0;whiteSpace=wrap;html=1;fillColor=#e1d5e7;strokeColor=#9673a6;" vertex="1" parent="1">
          <mxGeometry x="250" y="1130" width="155" height="10" as="geometry" />
        </mxCell>
        <mxCell id="VYJZh8un3jOaaNcptdvZ-211" value="" style="rounded=0;whiteSpace=wrap;html=1;strokeColor=#FFFFFF;" vertex="1" parent="1">
          <mxGeometry x="245" y="1130" width="65" height="10" as="geometry" />
        </mxCell>
        <mxCell id="VYJZh8un3jOaaNcptdvZ-212" value="" style="rounded=0;whiteSpace=wrap;html=1;strokeColor=#FFFFFF;" vertex="1" parent="1">
          <mxGeometry x="390" y="1130" width="15" height="10" as="geometry" />
        </mxCell>
        <mxCell id="VYJZh8un3jOaaNcptdvZ-213" value="" style="rounded=0;whiteSpace=wrap;html=1;strokeColor=#FFFFFF;" vertex="1" parent="1">
          <mxGeometry x="350" y="1130" width="10" height="10" as="geometry" />
        </mxCell>
        <mxCell id="VYJZh8un3jOaaNcptdvZ-214" value="Exposed&lt;br&gt;Gold" style="text;html=1;strokeColor=none;fillColor=none;align=center;verticalAlign=middle;whiteSpace=wrap;rounded=0;" vertex="1" parent="1">
          <mxGeometry x="241.25" y="800" width="60" height="30" as="geometry" />
        </mxCell>
        <mxCell id="VYJZh8un3jOaaNcptdvZ-215" value="" style="rounded=0;whiteSpace=wrap;html=1;" vertex="1" parent="1">
          <mxGeometry x="445" y="840" width="160" height="160" as="geometry" />
        </mxCell>
        <mxCell id="VYJZh8un3jOaaNcptdvZ-216" value="" style="ellipse;whiteSpace=wrap;html=1;aspect=fixed;fillColor=#f8cecc;strokeColor=#b85450;" vertex="1" parent="1">
          <mxGeometry x="520" y="920" width="20" height="20" as="geometry" />
        </mxCell>
        <mxCell id="VYJZh8un3jOaaNcptdvZ-217" value="" style="ellipse;whiteSpace=wrap;html=1;aspect=fixed;fillColor=#f8cecc;strokeColor=#b85450;" vertex="1" parent="1">
          <mxGeometry x="560" y="870" width="20" height="20" as="geometry" />
        </mxCell>
        <mxCell id="VYJZh8un3jOaaNcptdvZ-220" value="" style="rounded=0;whiteSpace=wrap;html=1;fillColor=#999999;strokeColor=none;" vertex="1" parent="1">
          <mxGeometry x="485" y="840" width="10" height="160" as="geometry" />
        </mxCell>
        <mxCell id="VYJZh8un3jOaaNcptdvZ-221" value="" style="rounded=0;whiteSpace=wrap;html=1;fillColor=#999999;strokeColor=none;" vertex="1" parent="1">
          <mxGeometry x="445" y="840" width="10" height="160" as="geometry" />
        </mxCell>
        <mxCell id="VYJZh8un3jOaaNcptdvZ-222" value="" style="rounded=0;whiteSpace=wrap;html=1;fillColor=#999999;strokeColor=none;" vertex="1" parent="1">
          <mxGeometry x="525" y="840" width="10" height="90" as="geometry" />
        </mxCell>
        <mxCell id="VYJZh8un3jOaaNcptdvZ-223" value="" style="rounded=0;whiteSpace=wrap;html=1;fillColor=#999999;strokeColor=none;" vertex="1" parent="1">
          <mxGeometry x="565" y="880" width="10" height="120" as="geometry" />
        </mxCell>
        <mxCell id="VYJZh8un3jOaaNcptdvZ-224" value="" style="rounded=1;whiteSpace=wrap;html=1;fillColor=#e1d5e7;strokeColor=#9673a6;" vertex="1" parent="1">
          <mxGeometry x="515" y="915" width="30" height="30" as="geometry" />
        </mxCell>
        <mxCell id="VYJZh8un3jOaaNcptdvZ-225" value="" style="rounded=1;whiteSpace=wrap;html=1;fillColor=#e1d5e7;strokeColor=#9673a6;" vertex="1" parent="1">
          <mxGeometry x="555" y="865" width="30" height="30" as="geometry" />
        </mxCell>
        <mxCell id="VYJZh8un3jOaaNcptdvZ-226" value="" style="rounded=0;whiteSpace=wrap;html=1;fillColor=#999999;fontColor=#333333;strokeColor=#666666;" vertex="1" parent="1">
          <mxGeometry x="441.25" y="1150" width="160" height="10" as="geometry" />
        </mxCell>
        <mxCell id="VYJZh8un3jOaaNcptdvZ-227" value="" style="rounded=0;whiteSpace=wrap;html=1;fillColor=#999999;strokeColor=none;fontColor=#333333;" vertex="1" parent="1">
          <mxGeometry x="443.75" y="1150" width="150" height="10" as="geometry" />
        </mxCell>
        <mxCell id="VYJZh8un3jOaaNcptdvZ-228" value="" style="rounded=0;whiteSpace=wrap;html=1;strokeColor=none;" vertex="1" parent="1">
          <mxGeometry x="453.75" y="1120" width="30" height="40" as="geometry" />
        </mxCell>
        <mxCell id="VYJZh8un3jOaaNcptdvZ-230" value="" style="rounded=0;whiteSpace=wrap;html=1;fillColor=#fff2cc;strokeColor=#d6b656;" vertex="1" parent="1">
          <mxGeometry x="508.75" y="1140" width="42.5" height="10" as="geometry" />
        </mxCell>
        <mxCell id="VYJZh8un3jOaaNcptdvZ-231" value="" style="rounded=0;whiteSpace=wrap;html=1;fillColor=#fff2cc;strokeColor=#d6b656;" vertex="1" parent="1">
          <mxGeometry x="558.75" y="1140" width="32.5" height="10" as="geometry" />
        </mxCell>
        <mxCell id="VYJZh8un3jOaaNcptdvZ-233" value="" style="rounded=0;whiteSpace=wrap;html=1;fillColor=#e1d5e7;strokeColor=#9673a6;" vertex="1" parent="1">
          <mxGeometry x="443.75" y="1130" width="160" height="10" as="geometry" />
        </mxCell>
        <mxCell id="VYJZh8un3jOaaNcptdvZ-234" value="" style="rounded=0;whiteSpace=wrap;html=1;fillColor=#e1d5e7;strokeColor=#9673a6;" vertex="1" parent="1">
          <mxGeometry x="446.25" y="1130" width="155" height="10" as="geometry" />
        </mxCell>
        <mxCell id="VYJZh8un3jOaaNcptdvZ-235" value="" style="rounded=0;whiteSpace=wrap;html=1;strokeColor=none;" vertex="1" parent="1">
          <mxGeometry x="441.25" y="1130" width="67.5" height="10" as="geometry" />
        </mxCell>
        <mxCell id="VYJZh8un3jOaaNcptdvZ-236" value="" style="rounded=0;whiteSpace=wrap;html=1;strokeColor=none;" vertex="1" parent="1">
          <mxGeometry x="591.25" y="1120" width="22.5" height="40" as="geometry" />
        </mxCell>
        <mxCell id="VYJZh8un3jOaaNcptdvZ-232" value="" style="rounded=0;whiteSpace=wrap;html=1;strokeColor=none;" vertex="1" parent="1">
          <mxGeometry x="443.75" y="1090" width="160" height="10" as="geometry" />
        </mxCell>
        <mxCell id="VYJZh8un3jOaaNcptdvZ-240" value="" style="rounded=0;whiteSpace=wrap;html=1;strokeColor=#FFFFFF;" vertex="1" parent="1">
          <mxGeometry x="581.25" y="1150" width="20" height="10" as="geometry" />
        </mxCell>
        <mxCell id="VYJZh8un3jOaaNcptdvZ-244" value="" style="rounded=0;whiteSpace=wrap;html=1;strokeColor=#FFFFFF;" vertex="1" parent="1">
          <mxGeometry x="548.75" y="1140" width="10" height="10" as="geometry" />
        </mxCell>
        <mxCell id="VYJZh8un3jOaaNcptdvZ-245" value="" style="rounded=0;whiteSpace=wrap;html=1;strokeColor=none;" vertex="1" parent="1">
          <mxGeometry x="548.75" y="1120" width="10" height="10" as="geometry" />
        </mxCell>
        <mxCell id="VYJZh8un3jOaaNcptdvZ-249" value="" style="rounded=0;whiteSpace=wrap;html=1;fillColor=#E6E6E6;" vertex="1" parent="1">
          <mxGeometry x="645" y="840" width="160" height="160" as="geometry" />
        </mxCell>
        <mxCell id="VYJZh8un3jOaaNcptdvZ-258" value="" style="rounded=0;whiteSpace=wrap;html=1;fillColor=#999999;fontColor=#333333;strokeColor=#666666;" vertex="1" parent="1">
          <mxGeometry x="645" y="1150" width="160" height="10" as="geometry" />
        </mxCell>
        <mxCell id="VYJZh8un3jOaaNcptdvZ-259" value="" style="rounded=0;whiteSpace=wrap;html=1;fillColor=#999999;strokeColor=none;fontColor=#333333;" vertex="1" parent="1">
          <mxGeometry x="647.5" y="1150" width="150" height="10" as="geometry" />
        </mxCell>
        <mxCell id="VYJZh8un3jOaaNcptdvZ-260" value="" style="rounded=0;whiteSpace=wrap;html=1;strokeColor=none;fillColor=#E6E6E6;" vertex="1" parent="1">
          <mxGeometry x="657.5" y="1150" width="30" height="10" as="geometry" />
        </mxCell>
        <mxCell id="VYJZh8un3jOaaNcptdvZ-261" value="" style="rounded=0;whiteSpace=wrap;html=1;strokeColor=none;fillColor=#E6E6E6;" vertex="1" parent="1">
          <mxGeometry x="697.5" y="1150" width="25" height="10" as="geometry" />
        </mxCell>
        <mxCell id="VYJZh8un3jOaaNcptdvZ-262" value="" style="rounded=0;whiteSpace=wrap;html=1;fillColor=#fff2cc;strokeColor=#d6b656;" vertex="1" parent="1">
          <mxGeometry x="712.5" y="1140" width="42.5" height="10" as="geometry" />
        </mxCell>
        <mxCell id="VYJZh8un3jOaaNcptdvZ-263" value="" style="rounded=0;whiteSpace=wrap;html=1;fillColor=#fff2cc;strokeColor=#d6b656;" vertex="1" parent="1">
          <mxGeometry x="762.5" y="1140" width="32.5" height="10" as="geometry" />
        </mxCell>
        <mxCell id="VYJZh8un3jOaaNcptdvZ-264" value="" style="rounded=0;whiteSpace=wrap;html=1;fillColor=#e1d5e7;strokeColor=#9673a6;" vertex="1" parent="1">
          <mxGeometry x="647.5" y="1130" width="147.5" height="10" as="geometry" />
        </mxCell>
        <mxCell id="VYJZh8un3jOaaNcptdvZ-265" value="" style="rounded=0;whiteSpace=wrap;html=1;fillColor=#e1d5e7;strokeColor=#9673a6;" vertex="1" parent="1">
          <mxGeometry x="650" y="1130" width="145" height="10" as="geometry" />
        </mxCell>
        <mxCell id="VYJZh8un3jOaaNcptdvZ-266" value="" style="rounded=0;whiteSpace=wrap;html=1;strokeColor=#FFFFFF;" vertex="1" parent="1">
          <mxGeometry x="645" y="1130" width="67.5" height="10" as="geometry" />
        </mxCell>
        <mxCell id="VYJZh8un3jOaaNcptdvZ-267" value="" style="rounded=0;whiteSpace=wrap;html=1;strokeColor=none;fillColor=#E6E6E6;" vertex="1" parent="1">
          <mxGeometry x="795" y="1140" width="10" height="10" as="geometry" />
        </mxCell>
        <mxCell id="VYJZh8un3jOaaNcptdvZ-268" value="" style="rounded=0;whiteSpace=wrap;html=1;strokeColor=#FFFFFF;" vertex="1" parent="1">
          <mxGeometry x="752.5" y="1130" width="10" height="10" as="geometry" />
        </mxCell>
        <mxCell id="VYJZh8un3jOaaNcptdvZ-269" value="" style="rounded=0;whiteSpace=wrap;html=1;" vertex="1" parent="1">
          <mxGeometry x="645" y="1160" width="160" height="40" as="geometry" />
        </mxCell>
        <mxCell id="VYJZh8un3jOaaNcptdvZ-270" value="" style="rounded=0;whiteSpace=wrap;html=1;strokeColor=none;" vertex="1" parent="1">
          <mxGeometry x="637.5" y="1090" width="160" height="10" as="geometry" />
        </mxCell>
        <mxCell id="VYJZh8un3jOaaNcptdvZ-271" value="" style="rounded=0;whiteSpace=wrap;html=1;strokeColor=none;fillColor=#E6E6E6;" vertex="1" parent="1">
          <mxGeometry x="785" y="1150" width="20" height="10" as="geometry" />
        </mxCell>
        <mxCell id="VYJZh8un3jOaaNcptdvZ-272" value="" style="rounded=0;whiteSpace=wrap;html=1;strokeColor=none;fillColor=#E6E6E6;" vertex="1" parent="1">
          <mxGeometry x="740" y="1150" width="35" height="10" as="geometry" />
        </mxCell>
        <mxCell id="VYJZh8un3jOaaNcptdvZ-273" value="" style="rounded=0;whiteSpace=wrap;html=1;strokeColor=none;fillColor=#E6E6E6;" vertex="1" parent="1">
          <mxGeometry x="752.5" y="1140" width="10" height="10" as="geometry" />
        </mxCell>
        <mxCell id="VYJZh8un3jOaaNcptdvZ-274" value="" style="rounded=0;whiteSpace=wrap;html=1;strokeColor=none;" vertex="1" parent="1">
          <mxGeometry x="752.5" y="1120" width="10" height="10" as="geometry" />
        </mxCell>
        <mxCell id="VYJZh8un3jOaaNcptdvZ-275" value="" style="rounded=0;whiteSpace=wrap;html=1;strokeColor=none;fillColor=#E6E6E6;" vertex="1" parent="1">
          <mxGeometry x="645" y="1140" width="67.5" height="10" as="geometry" />
        </mxCell>
        <mxCell id="VYJZh8un3jOaaNcptdvZ-276" value="Silicon" style="text;html=1;strokeColor=none;fillColor=none;align=center;verticalAlign=middle;whiteSpace=wrap;rounded=0;" vertex="1" parent="1">
          <mxGeometry x="693.75" y="905" width="60" height="30" as="geometry" />
        </mxCell>
        <mxCell id="VYJZh8un3jOaaNcptdvZ-277" value="" style="rounded=0;whiteSpace=wrap;html=1;strokeColor=#FFFFFF;" vertex="1" parent="1">
          <mxGeometry x="645" y="1120" width="67.5" height="10" as="geometry" />
        </mxCell>
        <mxCell id="VYJZh8un3jOaaNcptdvZ-278" value="" style="rounded=0;whiteSpace=wrap;html=1;strokeColor=none;fillColor=#E6E6E6;" vertex="1" parent="1">
          <mxGeometry x="712.5" y="1120" width="42.5" height="10" as="geometry" />
        </mxCell>
        <mxCell id="VYJZh8un3jOaaNcptdvZ-279" value="" style="rounded=0;whiteSpace=wrap;html=1;strokeColor=#FFFFFF;" vertex="1" parent="1">
          <mxGeometry x="752.5" y="1120" width="10" height="10" as="geometry" />
        </mxCell>
        <mxCell id="VYJZh8un3jOaaNcptdvZ-281" value="" style="rounded=0;whiteSpace=wrap;html=1;strokeColor=none;fillColor=#E6E6E6;" vertex="1" parent="1">
          <mxGeometry x="712.5" y="1110" width="42.5" height="10" as="geometry" />
        </mxCell>
        <mxCell id="VYJZh8un3jOaaNcptdvZ-282" value="" style="rounded=0;whiteSpace=wrap;html=1;strokeColor=#FFFFFF;" vertex="1" parent="1">
          <mxGeometry x="752.5" y="1110" width="10" height="10" as="geometry" />
        </mxCell>
        <mxCell id="VYJZh8un3jOaaNcptdvZ-283" value="" style="rounded=0;whiteSpace=wrap;html=1;strokeColor=none;fillColor=#E6E6E6;" vertex="1" parent="1">
          <mxGeometry x="762.5" y="1110" width="32.5" height="10" as="geometry" />
        </mxCell>
        <mxCell id="VYJZh8un3jOaaNcptdvZ-284" value="" style="rounded=0;whiteSpace=wrap;html=1;strokeColor=none;" vertex="1" parent="1">
          <mxGeometry x="802.5" y="1110" width="10" height="10" as="geometry" />
        </mxCell>
        <mxCell id="VYJZh8un3jOaaNcptdvZ-285" value="" style="rounded=0;whiteSpace=wrap;html=1;strokeColor=none;fillColor=#E6E6E6;" vertex="1" parent="1">
          <mxGeometry x="762.5" y="1120" width="42.5" height="10" as="geometry" />
        </mxCell>
        <mxCell id="VYJZh8un3jOaaNcptdvZ-286" value="" style="rounded=0;whiteSpace=wrap;html=1;strokeColor=none;" vertex="1" parent="1">
          <mxGeometry x="795" y="1120" width="17.5" height="10" as="geometry" />
        </mxCell>
        <mxCell id="VYJZh8un3jOaaNcptdvZ-287" value="" style="rounded=0;whiteSpace=wrap;html=1;fillColor=#E6E6E6;" vertex="1" parent="1">
          <mxGeometry x="318.75" y="1280" width="160" height="160" as="geometry" />
        </mxCell>
        <mxCell id="VYJZh8un3jOaaNcptdvZ-288" value="" style="rounded=0;whiteSpace=wrap;html=1;fillColor=#999999;fontColor=#333333;strokeColor=#666666;" vertex="1" parent="1">
          <mxGeometry x="325" y="1550" width="160" height="10" as="geometry" />
        </mxCell>
        <mxCell id="VYJZh8un3jOaaNcptdvZ-289" value="" style="rounded=0;whiteSpace=wrap;html=1;fillColor=#999999;strokeColor=none;fontColor=#333333;" vertex="1" parent="1">
          <mxGeometry x="327.5" y="1550" width="150" height="10" as="geometry" />
        </mxCell>
        <mxCell id="VYJZh8un3jOaaNcptdvZ-290" value="" style="rounded=0;whiteSpace=wrap;html=1;strokeColor=none;fillColor=#E6E6E6;" vertex="1" parent="1">
          <mxGeometry x="337.5" y="1550" width="30" height="10" as="geometry" />
        </mxCell>
        <mxCell id="VYJZh8un3jOaaNcptdvZ-291" value="" style="rounded=0;whiteSpace=wrap;html=1;strokeColor=none;fillColor=#E6E6E6;" vertex="1" parent="1">
          <mxGeometry x="377.5" y="1550" width="25" height="10" as="geometry" />
        </mxCell>
        <mxCell id="VYJZh8un3jOaaNcptdvZ-292" value="" style="rounded=0;whiteSpace=wrap;html=1;fillColor=#fff2cc;strokeColor=#d6b656;" vertex="1" parent="1">
          <mxGeometry x="392.5" y="1540" width="42.5" height="10" as="geometry" />
        </mxCell>
        <mxCell id="VYJZh8un3jOaaNcptdvZ-293" value="" style="rounded=0;whiteSpace=wrap;html=1;fillColor=#fff2cc;strokeColor=#d6b656;" vertex="1" parent="1">
          <mxGeometry x="442.5" y="1540" width="32.5" height="10" as="geometry" />
        </mxCell>
        <mxCell id="VYJZh8un3jOaaNcptdvZ-296" value="" style="rounded=0;whiteSpace=wrap;html=1;strokeColor=none;" vertex="1" parent="1">
          <mxGeometry x="325" y="1530" width="67.5" height="10" as="geometry" />
        </mxCell>
        <mxCell id="VYJZh8un3jOaaNcptdvZ-297" value="" style="rounded=0;whiteSpace=wrap;html=1;strokeColor=none;fillColor=#E6E6E6;" vertex="1" parent="1">
          <mxGeometry x="475" y="1540" width="10" height="10" as="geometry" />
        </mxCell>
        <mxCell id="VYJZh8un3jOaaNcptdvZ-298" value="" style="rounded=0;whiteSpace=wrap;html=1;strokeColor=none;" vertex="1" parent="1">
          <mxGeometry x="432.5" y="1530" width="10" height="10" as="geometry" />
        </mxCell>
        <mxCell id="VYJZh8un3jOaaNcptdvZ-299" value="" style="rounded=0;whiteSpace=wrap;html=1;" vertex="1" parent="1">
          <mxGeometry x="325" y="1560" width="160" height="40" as="geometry" />
        </mxCell>
        <mxCell id="VYJZh8un3jOaaNcptdvZ-300" value="" style="rounded=0;whiteSpace=wrap;html=1;strokeColor=none;" vertex="1" parent="1">
          <mxGeometry x="311.25" y="1530" width="160" height="10" as="geometry" />
        </mxCell>
        <mxCell id="VYJZh8un3jOaaNcptdvZ-301" value="" style="rounded=0;whiteSpace=wrap;html=1;strokeColor=none;fillColor=#E6E6E6;" vertex="1" parent="1">
          <mxGeometry x="465" y="1550" width="20" height="10" as="geometry" />
        </mxCell>
        <mxCell id="VYJZh8un3jOaaNcptdvZ-302" value="" style="rounded=0;whiteSpace=wrap;html=1;strokeColor=none;fillColor=#E6E6E6;" vertex="1" parent="1">
          <mxGeometry x="420" y="1550" width="35" height="10" as="geometry" />
        </mxCell>
        <mxCell id="VYJZh8un3jOaaNcptdvZ-303" value="" style="rounded=0;whiteSpace=wrap;html=1;strokeColor=none;fillColor=#E6E6E6;" vertex="1" parent="1">
          <mxGeometry x="432.5" y="1540" width="10" height="10" as="geometry" />
        </mxCell>
        <mxCell id="VYJZh8un3jOaaNcptdvZ-304" value="" style="rounded=0;whiteSpace=wrap;html=1;strokeColor=none;" vertex="1" parent="1">
          <mxGeometry x="422.5" y="1520" width="10" height="10" as="geometry" />
        </mxCell>
        <mxCell id="VYJZh8un3jOaaNcptdvZ-305" value="" style="rounded=0;whiteSpace=wrap;html=1;strokeColor=none;fillColor=#E6E6E6;" vertex="1" parent="1">
          <mxGeometry x="325" y="1540" width="67.5" height="10" as="geometry" />
        </mxCell>
        <mxCell id="VYJZh8un3jOaaNcptdvZ-307" value="" style="rounded=0;whiteSpace=wrap;html=1;strokeColor=none;" vertex="1" parent="1">
          <mxGeometry x="315" y="1520" width="67.5" height="10" as="geometry" />
        </mxCell>
        <mxCell id="VYJZh8un3jOaaNcptdvZ-309" value="" style="rounded=0;whiteSpace=wrap;html=1;strokeColor=none;" vertex="1" parent="1">
          <mxGeometry x="422.5" y="1520" width="10" height="10" as="geometry" />
        </mxCell>
        <mxCell id="VYJZh8un3jOaaNcptdvZ-311" value="" style="rounded=0;whiteSpace=wrap;html=1;strokeColor=none;" vertex="1" parent="1">
          <mxGeometry x="422.5" y="1510" width="10" height="10" as="geometry" />
        </mxCell>
        <mxCell id="VYJZh8un3jOaaNcptdvZ-313" value="" style="rounded=0;whiteSpace=wrap;html=1;strokeColor=none;" vertex="1" parent="1">
          <mxGeometry x="472.5" y="1510" width="10" height="10" as="geometry" />
        </mxCell>
        <mxCell id="VYJZh8un3jOaaNcptdvZ-315" value="" style="rounded=0;whiteSpace=wrap;html=1;strokeColor=none;" vertex="1" parent="1">
          <mxGeometry x="465" y="1520" width="17.5" height="10" as="geometry" />
        </mxCell>
        <mxCell id="VYJZh8un3jOaaNcptdvZ-317" value="" style="rounded=1;whiteSpace=wrap;html=1;fillColor=#fff2cc;strokeColor=#d6b656;" vertex="1" parent="1">
          <mxGeometry x="388.75" y="1355" width="30" height="30" as="geometry" />
        </mxCell>
        <mxCell id="VYJZh8un3jOaaNcptdvZ-318" value="" style="rounded=1;whiteSpace=wrap;html=1;fillColor=#fff2cc;strokeColor=#d6b656;" vertex="1" parent="1">
          <mxGeometry x="428.75" y="1305" width="30" height="30" as="geometry" />
        </mxCell>
        <mxCell id="VYJZh8un3jOaaNcptdvZ-319" value="Isolant &lt;br&gt;Silicon" style="text;html=1;strokeColor=none;fillColor=none;align=center;verticalAlign=middle;whiteSpace=wrap;rounded=0;" vertex="1" parent="1">
          <mxGeometry x="522.5" y="1350" width="60" height="30" as="geometry" />
        </mxCell>
        <mxCell id="VYJZh8un3jOaaNcptdvZ-320" value="Gold Pad" style="text;html=1;strokeColor=none;fillColor=none;align=center;verticalAlign=middle;whiteSpace=wrap;rounded=0;" vertex="1" parent="1">
          <mxGeometry x="512.5" y="1305" width="60" height="30" as="geometry" />
        </mxCell>
        <mxCell id="VYJZh8un3jOaaNcptdvZ-321" value="" style="endArrow=classic;html=1;rounded=0;entryX=1;entryY=0.125;entryDx=0;entryDy=0;entryPerimeter=0;" edge="1" source="VYJZh8un3jOaaNcptdvZ-320" parent="1">
          <mxGeometry width="50" height="50" relative="1" as="geometry">
            <mxPoint x="302.5" y="1475" as="sourcePoint" />
            <mxPoint x="452.5" y="1320" as="targetPoint" />
          </mxGeometry>
        </mxCell>
        <mxCell id="VYJZh8un3jOaaNcptdvZ-322" value="" style="endArrow=classic;html=1;rounded=0;exitX=0;exitY=0.25;exitDx=0;exitDy=0;" edge="1" source="VYJZh8un3jOaaNcptdvZ-319" parent="1">
          <mxGeometry width="50" height="50" relative="1" as="geometry">
            <mxPoint x="492.5" y="1355" as="sourcePoint" />
            <mxPoint x="472.5" y="1358" as="targetPoint" />
          </mxGeometry>
        </mxCell>
        <mxCell id="VYJZh8un3jOaaNcptdvZ-323" value="1)" style="text;html=1;strokeColor=none;fillColor=none;align=center;verticalAlign=middle;whiteSpace=wrap;rounded=0;" vertex="1" parent="1">
          <mxGeometry x="170" y="10" width="60" height="30" as="geometry" />
        </mxCell>
        <mxCell id="VYJZh8un3jOaaNcptdvZ-324" value="2)" style="text;html=1;strokeColor=none;fillColor=none;align=center;verticalAlign=middle;whiteSpace=wrap;rounded=0;" vertex="1" parent="1">
          <mxGeometry x="366.25" y="10" width="60" height="30" as="geometry" />
        </mxCell>
        <mxCell id="VYJZh8un3jOaaNcptdvZ-325" value="3)" style="text;html=1;strokeColor=none;fillColor=none;align=center;verticalAlign=middle;whiteSpace=wrap;rounded=0;" vertex="1" parent="1">
          <mxGeometry x="570" y="10" width="60" height="30" as="geometry" />
        </mxCell>
        <mxCell id="VYJZh8un3jOaaNcptdvZ-326" value="4)" style="text;html=1;strokeColor=none;fillColor=none;align=center;verticalAlign=middle;whiteSpace=wrap;rounded=0;" vertex="1" parent="1">
          <mxGeometry x="770" y="10" width="60" height="30" as="geometry" />
        </mxCell>
        <mxCell id="VYJZh8un3jOaaNcptdvZ-328" value="8)" style="text;html=1;strokeColor=none;fillColor=none;align=center;verticalAlign=middle;whiteSpace=wrap;rounded=0;" vertex="1" parent="1">
          <mxGeometry x="775" y="440" width="60" height="30" as="geometry" />
        </mxCell>
        <mxCell id="VYJZh8un3jOaaNcptdvZ-329" value="7)" style="text;html=1;strokeColor=none;fillColor=none;align=center;verticalAlign=middle;whiteSpace=wrap;rounded=0;" vertex="1" parent="1">
          <mxGeometry x="575" y="440" width="60" height="30" as="geometry" />
        </mxCell>
        <mxCell id="VYJZh8un3jOaaNcptdvZ-330" value="6)" style="text;html=1;strokeColor=none;fillColor=none;align=center;verticalAlign=middle;whiteSpace=wrap;rounded=0;" vertex="1" parent="1">
          <mxGeometry x="371.25" y="440" width="60" height="30" as="geometry" />
        </mxCell>
        <mxCell id="VYJZh8un3jOaaNcptdvZ-331" value="5)" style="text;html=1;strokeColor=none;fillColor=none;align=center;verticalAlign=middle;whiteSpace=wrap;rounded=0;" vertex="1" parent="1">
          <mxGeometry x="175" y="440" width="60" height="30" as="geometry" />
        </mxCell>
        <mxCell id="VYJZh8un3jOaaNcptdvZ-332" value="12)" style="text;html=1;strokeColor=none;fillColor=none;align=center;verticalAlign=middle;whiteSpace=wrap;rounded=0;" vertex="1" parent="1">
          <mxGeometry x="785" y="810" width="60" height="30" as="geometry" />
        </mxCell>
        <mxCell id="VYJZh8un3jOaaNcptdvZ-333" value="11)" style="text;html=1;strokeColor=none;fillColor=none;align=center;verticalAlign=middle;whiteSpace=wrap;rounded=0;" vertex="1" parent="1">
          <mxGeometry x="585" y="810" width="60" height="30" as="geometry" />
        </mxCell>
        <mxCell id="VYJZh8un3jOaaNcptdvZ-334" value="10)" style="text;html=1;strokeColor=none;fillColor=none;align=center;verticalAlign=middle;whiteSpace=wrap;rounded=0;" vertex="1" parent="1">
          <mxGeometry x="381.25" y="810" width="60" height="30" as="geometry" />
        </mxCell>
        <mxCell id="VYJZh8un3jOaaNcptdvZ-335" value="9)" style="text;html=1;strokeColor=none;fillColor=none;align=center;verticalAlign=middle;whiteSpace=wrap;rounded=0;" vertex="1" parent="1">
          <mxGeometry x="185" y="810" width="60" height="30" as="geometry" />
        </mxCell>
        <mxCell id="VYJZh8un3jOaaNcptdvZ-336" value="13)" style="text;html=1;strokeColor=none;fillColor=none;align=center;verticalAlign=middle;whiteSpace=wrap;rounded=0;" vertex="1" parent="1">
          <mxGeometry x="447.5" y="1250" width="60" height="30" as="geometry" />
        </mxCell>
        <mxCell id="VYJZh8un3jOaaNcptdvZ-93" value="" style="rounded=0;whiteSpace=wrap;html=1;" vertex="1" parent="1">
          <mxGeometry x="240" y="710" width="160" height="40" as="geometry" />
        </mxCell>
        <mxCell id="VYJZh8un3jOaaNcptdvZ-339" value="" style="endArrow=classic;html=1;rounded=0;exitX=0.579;exitY=0.983;exitDx=0;exitDy=0;exitPerimeter=0;" edge="1" source="VYJZh8un3jOaaNcptdvZ-340" parent="1">
          <mxGeometry width="50" height="50" relative="1" as="geometry">
            <mxPoint x="431.25" y="1040" as="sourcePoint" />
            <mxPoint x="570.5" y="865" as="targetPoint" />
          </mxGeometry>
        </mxCell>
        <mxCell id="VYJZh8un3jOaaNcptdvZ-340" value="Photoresist" style="text;html=1;strokeColor=none;fillColor=none;align=center;verticalAlign=middle;whiteSpace=wrap;rounded=0;" vertex="1" parent="1">
          <mxGeometry x="536.25" y="800" width="60" height="30" as="geometry" />
        </mxCell>
        <mxCell id="VYJZh8un3jOaaNcptdvZ-341" value="" style="endArrow=classic;html=1;rounded=0;exitX=0.423;exitY=1.007;exitDx=0;exitDy=0;exitPerimeter=0;" edge="1" source="VYJZh8un3jOaaNcptdvZ-342" parent="1">
          <mxGeometry width="50" height="50" relative="1" as="geometry">
            <mxPoint x="516.25" y="864.2" as="sourcePoint" />
            <mxPoint x="490" y="870" as="targetPoint" />
          </mxGeometry>
        </mxCell>
        <mxCell id="VYJZh8un3jOaaNcptdvZ-342" value="Aluminium" style="text;html=1;strokeColor=none;fillColor=none;align=center;verticalAlign=middle;whiteSpace=wrap;rounded=0;" vertex="1" parent="1">
          <mxGeometry x="465" y="800" width="60" height="30" as="geometry" />
        </mxCell>
        <mxCell id="VYJZh8un3jOaaNcptdvZ-208" value="" style="rounded=0;whiteSpace=wrap;html=1;fillColor=#fff2cc;strokeColor=#d6b656;" vertex="1" parent="1">
          <mxGeometry x="245" y="1140" width="160" height="10" as="geometry" />
        </mxCell>
        <mxCell id="VYJZh8un3jOaaNcptdvZ-345" value="Glass" style="text;html=1;strokeColor=none;fillColor=none;align=center;verticalAlign=middle;whiteSpace=wrap;rounded=0;" vertex="1" parent="1">
          <mxGeometry x="500" y="960" width="60" height="30" as="geometry" />
        </mxCell>
        <mxCell id="VYJZh8un3jOaaNcptdvZ-248" value="" style="rounded=0;whiteSpace=wrap;html=1;strokeColor=none;" vertex="1" parent="1">
          <mxGeometry x="438.75" y="1120" width="72.5" height="30" as="geometry" />
        </mxCell>
        <mxCell id="VYJZh8un3jOaaNcptdvZ-229" value="" style="rounded=0;whiteSpace=wrap;html=1;strokeColor=#FFFFFF;" vertex="1" parent="1">
          <mxGeometry x="493.75" y="1150" width="25" height="10" as="geometry" />
        </mxCell>
        <mxCell id="VYJZh8un3jOaaNcptdvZ-242" value="" style="rounded=0;whiteSpace=wrap;html=1;strokeColor=#FFFFFF;" vertex="1" parent="1">
          <mxGeometry x="536.25" y="1150" width="35" height="10" as="geometry" />
        </mxCell>
        <mxCell id="VYJZh8un3jOaaNcptdvZ-237" value="" style="rounded=0;whiteSpace=wrap;html=1;strokeColor=#FFFFFF;" vertex="1" parent="1">
          <mxGeometry x="548.75" y="1130" width="10" height="10" as="geometry" />
        </mxCell>
        <mxCell id="VYJZh8un3jOaaNcptdvZ-238" value="" style="rounded=0;whiteSpace=wrap;html=1;" vertex="1" parent="1">
          <mxGeometry x="441.25" y="1160" width="160" height="40" as="geometry" />
        </mxCell>
      </root>
    </mxGraphModel>
  </diagram>
</mxfile>
